<?xml version="1.0" standalone="no"?>
<!DOCTYPE svg PUBLIC "-//W3C//DTD SVG 20010904//EN"
 "http://www.w3.org/TR/2001/REC-SVG-20010904/DTD/svg10.dtd">
<svg version="1.0" xmlns="http://www.w3.org/2000/svg"
 width="1725.000000pt" height="429.000000pt" viewBox="0 0 1725.000000 429.000000"
 preserveAspectRatio="xMidYMid meet">

<g transform="translate(0.000000,429.000000) scale(0.100000,-0.100000)"
fill="#000000" stroke="none">
<path d="M0 2145 l0 -2145 8625 0 8625 0 0 2145 0 2145 -8625 0 -8625 0 0
-2145z m3584 1025 c109 -28 186 -72 256 -147 70 -74 113 -159 135 -261 68
-326 -100 -629 -385 -696 -94 -23 -259 -21 -354 4 -173 44 -310 175 -361 344
-45 150 -43 285 7 429 40 119 135 229 243 285 120 62 313 79 459 42z m2965 -9
c77 -27 154 -75 204 -127 l37 -39 -25 -22 c-34 -30 -41 -29 -77 7 -109 109
-254 155 -416 131 -186 -27 -322 -155 -371 -350 -61 -245 24 -475 217 -580
180 -100 402 -74 559 64 53 46 53 46 77 28 36 -25 32 -43 -19 -86 -127 -108
-234 -142 -423 -135 -131 6 -186 21 -272 76 -146 93 -226 248 -237 457 -10
190 52 362 168 469 70 65 110 88 206 116 93 27 278 23 372 -9z m2496 9 c185
-47 309 -163 371 -345 24 -70 28 -96 28 -205 1 -143 -14 -206 -72 -310 -69
-126 -201 -220 -349 -250 -93 -19 -281 -9 -363 19 -226 78 -354 273 -354 541
0 239 97 415 283 509 119 61 311 78 456 41z m2625 -8 c75 -25 137 -63 199
-123 l42 -42 -22 -23 c-12 -13 -28 -24 -35 -24 -7 0 -39 23 -70 50 -74 65
-144 99 -230 111 -278 41 -491 -117 -541 -399 -15 -83 -15 -99 -1 -187 19
-115 51 -185 120 -261 130 -141 360 -184 542 -101 28 13 79 47 114 76 l62 52
30 -21 c17 -12 27 -27 24 -35 -10 -25 -118 -107 -179 -136 -76 -36 -144 -49
-255 -49 -119 0 -193 16 -273 57 -118 62 -198 160 -244 298 -23 69 -27 97 -27
205 0 142 16 219 67 314 65 122 163 203 296 243 66 20 92 23 196 19 86 -2 138
-9 185 -24z m2535 -2 c223 -71 364 -279 365 -537 1 -283 -158 -500 -406 -559
-107 -25 -307 -15 -397 19 -185 72 -299 219 -334 434 -15 96 -15 110 0 205 40
239 171 389 391 449 98 26 280 21 381 -11z m-12405 -187 c74 -109 159 -235
190 -280 30 -46 57 -83 60 -83 3 0 22 26 42 58 20 31 104 156 186 277 l148
220 87 3 87 3 0 -551 0 -550 -40 0 -40 0 0 516 0 515 -22 -3 c-22 -3 -40 -28
-311 -430 -123 -183 -133 -196 -149 -180 -13 14 -97 134 -330 475 -74 107
-100 138 -116 135 -16 -3 -17 -47 -20 -518 l-2 -516 -40 4 -40 4 0 549 0 549
88 0 88 0 134 -197z m2661 120 c35 -43 71 -87 81 -98 32 -37 232 -277 283
-341 28 -34 86 -105 130 -158 l80 -96 3 385 2 385 40 0 40 0 0 -490 c0 -277
-4 -490 -9 -490 -5 0 -71 75 -148 168 -76 92 -195 234 -263 316 -69 82 -159
191 -200 241 -118 145 -156 185 -174 185 -15 0 -16 -43 -14 -515 l3 -515 -42
0 -43 0 0 550 0 550 84 0 85 0 62 -77z m759 -473 l0 -550 -82 0 -83 0 -120
147 c-66 80 -151 183 -190 228 -38 45 -128 153 -200 239 l-130 157 -3 -385 -2
-386 -35 0 -35 0 0 498 0 497 28 -30 c15 -17 43 -50 63 -75 20 -25 47 -56 59
-70 12 -14 76 -90 141 -170 186 -228 289 -353 318 -385 14 -16 53 -63 85 -103
60 -74 89 -98 106 -87 6 4 10 194 10 516 l0 509 35 0 35 0 0 -550z m1930 0 l0
-550 -40 0 -40 0 0 550 0 550 40 0 40 0 0 -550z m110 325 l0 -225 303 2 302 3
3 223 2 222 40 0 40 0 0 -260 0 -260 -385 0 -385 0 0 260 0 260 40 0 40 0 0
-225z m800 -325 l0 -550 -40 0 -40 0 0 550 0 550 40 0 40 0 0 -550z m1712 148
l3 -403 29 -53 c41 -73 88 -113 182 -152 74 -32 86 -34 194 -35 119 0 180 13
260 58 52 28 108 86 133 137 21 44 22 57 25 448 l3 402 39 0 40 0 0 -392 c0
-406 -4 -451 -43 -523 -40 -73 -134 -147 -226 -176 -92 -30 -279 -37 -386 -15
-162 34 -279 131 -319 265 -14 46 -16 115 -16 448 l0 393 40 0 39 0 3 -402z
m108 36 c0 -249 4 -379 12 -405 61 -204 419 -243 558 -61 l35 45 3 394 3 393
40 0 40 0 -3 -402 c-3 -402 -3 -403 -27 -448 -52 -98 -140 -152 -276 -169
-162 -20 -288 13 -376 99 -88 86 -89 93 -89 544 l0 376 40 0 40 0 0 -366z
m2390 -184 l0 -550 -40 0 -40 0 0 550 0 550 40 0 40 0 0 -550z m112 328 l3
-223 300 0 300 0 3 223 2 222 40 0 40 0 0 -260 0 -260 -385 0 -385 0 0 260 0
260 40 0 40 0 2 -222z m798 -328 l0 -550 -40 0 -40 0 0 550 0 550 40 0 40 0 0
-550z m1712 153 l3 -398 28 -57 c36 -72 90 -119 183 -158 137 -57 314 -51 441
16 77 40 116 80 149 152 l24 53 0 394 0 395 40 0 40 0 0 -405 c0 -380 -1 -407
-20 -458 -40 -107 -131 -190 -248 -228 -95 -31 -289 -38 -395 -14 -135 30
-242 111 -296 225 l-26 55 -3 413 -3 412 40 0 40 0 3 -397z m108 36 c0 -229 4
-376 11 -404 15 -59 66 -116 136 -151 52 -26 68 -29 158 -29 92 0 106 3 166
31 52 25 74 43 100 80 l34 49 3 393 3 392 39 0 40 0 0 -385 c0 -428 -2 -443
-66 -522 -72 -87 -233 -134 -391 -112 -140 19 -230 76 -280 177 l-28 57 -3
393 -3 392 41 0 40 0 0 -361z m-8448 243 c61 -30 148 -102 148 -124 0 -12 -41
-47 -55 -48 -6 0 -28 18 -49 39 -21 22 -66 52 -100 67 -53 25 -73 28 -151 28
-79 0 -97 -3 -143 -27 -99 -52 -164 -142 -191 -265 -33 -154 16 -335 113 -418
72 -62 120 -79 226 -79 113 0 162 18 238 89 27 25 53 46 57 46 13 0 55 -42 55
-54 0 -17 -93 -96 -145 -121 -105 -52 -294 -52 -400 0 -107 53 -201 186 -226
320 -17 90 -6 248 22 315 58 139 134 213 264 257 27 8 79 12 156 10 107 -3
121 -5 181 -35z m5118 2 c36 -17 87 -52 114 -79 l50 -48 -30 -23 c-16 -13 -34
-24 -39 -24 -6 0 -28 18 -49 39 -21 22 -66 52 -100 67 -53 25 -73 29 -151 28
-77 0 -97 -4 -140 -26 -180 -93 -252 -329 -168 -549 33 -84 93 -152 169 -190
41 -20 64 -24 144 -24 113 0 162 18 238 89 27 25 53 46 57 46 13 0 55 -42 55
-55 0 -19 -90 -93 -145 -120 -57 -28 -182 -47 -253 -39 -232 27 -382 213 -382
474 0 184 78 341 207 417 73 43 126 53 248 50 99 -3 118 -6 175 -33z m-10006
-67 c19 -29 73 -108 121 -177 47 -69 120 -176 162 -237 101 -151 103 -151 203
0 41 61 78 117 83 122 12 15 168 243 210 308 21 31 40 57 43 57 2 0 4 -223 4
-495 l0 -495 -40 0 -40 0 -2 366 -3 366 -50 -73 c-27 -41 -92 -136 -144 -211
l-93 -138 -72 0 -71 0 -37 55 c-74 109 -173 251 -215 310 l-43 59 0 -367 0
-367 -40 0 -40 0 0 496 c0 550 -4 522 64 421z m6286 -642 l0 -275 -40 0 -40 0
-2 238 -3 237 -300 0 -300 0 -3 -237 -2 -238 -40 0 -40 0 0 273 c0 151 2 276
4 278 2 2 176 3 385 1 l381 -2 0 -275z m5120 0 l0 -275 -40 0 -40 0 0 240 0
240 -305 0 -305 0 0 -240 0 -240 -40 0 -40 0 0 273 c0 151 2 276 4 278 2 2
176 3 385 1 l381 -2 0 -275z m-7782 -1042 l3 -32 -143 -3 -143 -3 -3 -77 -3
-78 131 0 130 0 0 -35 0 -35 -130 0 -130 0 0 -100 0 -100 -45 0 -45 0 0 243
c0 134 3 247 7 251 4 3 88 5 187 4 l181 -3 3 -32z m541 6 c67 -37 86 -68 86
-144 0 -70 -17 -103 -72 -140 l-29 -20 26 -36 c14 -20 38 -50 53 -68 38 -46
35 -61 -13 -61 -36 0 -43 4 -82 57 -74 99 -65 93 -145 93 l-73 0 0 -75 0 -75
-45 0 -45 0 0 243 c0 134 3 247 8 251 4 5 70 6 147 4 126 -4 145 -7 184 -29z
m681 -4 l0 -35 -145 0 -146 0 3 -67 3 -68 128 -3 127 -3 0 -34 0 -34 -127 -3
-128 -3 -3 -72 -3 -73 151 0 150 0 0 -35 0 -35 -190 0 -190 0 0 250 0 250 185
0 185 0 0 -35z m336 -8 c22 -23 64 -71 94 -106 30 -36 60 -69 65 -75 6 -6 30
-35 55 -65 l45 -55 5 170 5 169 43 3 42 3 0 -250 0 -251 -36 0 c-19 0 -41 6
-47 13 -7 6 -62 70 -122 141 -61 70 -122 142 -137 160 l-28 31 0 -172 0 -173
-45 0 -45 0 0 243 c0 134 3 247 7 250 3 4 19 7 33 7 20 0 39 -13 66 -43z m980
16 c64 -34 71 -48 38 -76 l-28 -25 -36 25 c-144 95 -340 -30 -299 -191 30
-121 187 -175 299 -102 l36 24 28 -25 c33 -28 26 -42 -38 -76 -34 -18 -57 -22
-141 -22 -117 0 -159 17 -219 87 -54 63 -70 150 -45 242 14 50 92 128 150 149
63 24 200 18 255 -10z m354 -78 l0 -105 140 0 139 0 3 103 3 102 40 0 40 0 3
-247 2 -248 -45 0 -45 0 0 110 0 111 -137 -3 -138 -3 -3 -107 -3 -108 -44 0
-45 0 0 243 c0 134 3 247 7 250 3 4 24 7 45 7 l38 0 0 -105z m1282 83 c76 -34
98 -123 48 -191 -18 -24 -20 -31 -9 -38 8 -5 16 -9 19 -9 15 0 40 -63 40 -98
0 -62 -15 -89 -62 -114 -39 -20 -60 -23 -215 -26 l-173 -4 0 244 c0 135 3 248
8 252 4 4 75 6 157 4 110 -3 160 -9 187 -20z m398 -228 l0 -250 -40 0 -40 0 0
250 0 250 40 0 40 0 0 -250z m562 228 c36 -16 37 -18 27 -47 -13 -36 -14 -36
-80 -15 -62 21 -150 15 -179 -11 -11 -10 -20 -31 -20 -46 0 -23 8 -32 38 -48
20 -10 57 -22 82 -26 71 -12 143 -43 164 -71 47 -65 23 -153 -54 -191 -78 -40
-268 -25 -313 25 -14 16 -15 23 -4 45 6 15 14 27 17 27 3 0 27 -11 54 -25 37
-19 65 -25 112 -25 72 0 108 13 121 44 21 49 -12 74 -134 102 -95 21 -144 50
-161 96 -28 72 15 154 91 177 48 15 196 8 239 -11z m618 -13 l0 -35 -90 0 -90
0 0 -215 0 -215 -40 0 -40 0 -2 213 -3 212 -87 3 -88 3 0 28 c0 15 3 31 7 34
3 4 102 7 220 7 l213 0 0 -35z m511 8 c67 -30 94 -73 94 -150 0 -68 -17 -101
-72 -139 l-31 -20 59 -79 c33 -43 59 -80 59 -82 0 -2 -21 -3 -47 -3 -43 0 -50
3 -72 35 -13 19 -31 43 -40 54 -9 11 -24 29 -33 40 -15 18 -29 21 -93 21 l-75
0 0 -75 0 -75 -40 0 -40 0 0 251 0 251 143 -4 c116 -3 150 -8 188 -25z m672 7
c60 -23 119 -77 142 -132 19 -48 19 -148 -1 -196 -38 -92 -121 -143 -240 -150
-95 -5 -140 7 -201 52 -63 47 -96 114 -96 195 1 80 19 124 70 172 64 61 105
77 205 78 45 1 85 -6 121 -19z"/>
<path d="M3303 3106 c-233 -53 -374 -236 -374 -488 -1 -127 32 -227 105 -324
43 -57 103 -101 188 -137 68 -28 82 -31 193 -31 109 0 126 3 190 29 39 15 84
37 100 48 54 37 115 111 149 182 97 204 63 437 -88 590 -92 94 -176 130 -321
139 -51 4 -102 1 -142 -8z m286 -40 c58 -21 142 -78 175 -116 38 -45 83 -146
97 -218 15 -79 7 -219 -16 -292 -63 -193 -212 -293 -435 -293 -172 1 -287 61
-376 193 -88 131 -95 374 -17 529 51 101 163 189 267 211 64 14 254 5 305 -14z"/>
<path d="M3327 3010 c-219 -56 -336 -297 -260 -535 33 -104 93 -171 193 -219
59 -28 74 -31 160 -31 82 0 103 4 151 26 108 51 171 130 204 259 53 204 -44
413 -225 484 -54 21 -170 29 -223 16z"/>
<path d="M8785 3110 c-236 -36 -398 -236 -398 -490 0 -292 206 -500 496 -500
246 0 440 169 478 417 54 353 -221 627 -576 573z m274 -48 c113 -44 189 -124
238 -248 24 -61 27 -83 28 -189 0 -136 -15 -197 -70 -289 -86 -143 -251 -211
-453 -186 -272 34 -432 290 -368 590 38 177 145 297 299 336 79 20 258 12 326
-14z"/>
<path d="M8788 3009 c-53 -12 -149 -63 -173 -91 -78 -92 -123 -231 -111 -340
24 -212 161 -348 361 -356 214 -10 363 137 382 374 12 144 -60 295 -173 367
-80 49 -194 68 -286 46z"/>
<path d="M13903 3109 c-241 -40 -393 -229 -393 -489 1 -107 12 -156 56 -247
113 -228 411 -320 659 -202 79 37 122 74 172 146 110 162 121 370 29 550 -68
131 -179 213 -325 239 -85 15 -123 16 -198 3z m232 -33 c150 -40 258 -152 300
-311 19 -75 19 -211 0 -292 -54 -230 -260 -359 -517 -323 -203 28 -341 175
-370 393 -34 257 94 480 307 533 67 17 218 17 280 0z"/>
<path d="M13907 3009 c-234 -55 -353 -346 -238 -583 68 -140 191 -212 349
-204 131 6 230 65 292 174 112 195 58 459 -118 568 -78 49 -193 67 -285 45z"/>
<path d="M5580 1164 l0 -106 93 4 c122 6 161 32 159 109 -2 66 -64 99 -184 99
l-68 0 0 -106z"/>
<path d="M9190 1200 l0 -70 100 0 c109 0 147 11 156 47 18 71 -21 93 -162 93
l-94 0 0 -70z"/>
<path d="M9198 1054 c-5 -4 -8 -39 -8 -77 l0 -69 126 3 c120 4 126 5 144 29
27 34 25 62 -6 91 -23 22 -35 24 -137 27 -62 2 -115 0 -119 -4z"/>
<path d="M11307 1263 c-4 -3 -7 -51 -7 -105 l0 -98 76 0 c100 0 151 16 170 51
32 64 4 130 -64 149 -41 11 -165 14 -175 3z"/>
<path d="M12032 1259 c-45 -13 -110 -82 -118 -126 -22 -119 65 -223 189 -223
61 0 94 14 138 57 71 68 74 162 7 239 -52 59 -129 78 -216 53z"/>
</g>
</svg>
